<?xml version="1.0" encoding="UTF-8"?>
<svg height="600" width="800" xmlns="http://www.w3.org/2000/svg" xmlns:xlink="http://www.w3.org/1999/xlink">
    <g id="Notes" font-family="LucidaGrande, 'Lucida Grande', sans-serif" font-size="13">
        <rect fill="white" height="600.0" width="800.0" x="0.0" y="0.0" />
        <g font-size="13">
            <text x="18.0" y="176.0">Small</text>
            <text x="18.0" y="376.0">Medium</text>
            <text x="18.0" y="576.0">Large</text>
        </g>
        <g font-size="9">
            <text x="250.0" y="30.0">Ultralight</text>
            <text x="450.0" y="30.0">Regular</text>
            <text x="650.0" y="30.0">Black</text>
            <text id="template-version" fill="#505050" text-anchor="end" x="785.0" y="575.0">Template v.3.0</text>
            <a href="https://github.com/swhitty/SwiftDraw">
                <text fill="#505050" text-anchor="end" x="785.0" y="590.0">https://github.com/swhitty/SwiftDraw</text>
            </a>
        </g>
    </g>
    <g id="Guides" stroke="rgb(39, 170, 225)" stroke-width="0.5">
        <path id="Capline-S" d="M18,76 l800,0" />
        <path id="H-reference" d="M85,145.755 L87.685,145.755 L113.369,79.287 L114.052,79.287 L114.052,76 L112.148,76 L85,145.755 Z M95.693,121.536 L130.996,121.536 L130.263,119.313 L96.474,119.313 L95.693,121.536 Z M139.15,145.755 L141.787,145.755 L114.638,76 L113.466,76 L113.466,79.287 L139.15,145.755 Z" stroke="none" transform="translate(0,0)" />
        <path id="Baseline-S" d="M18,146 l800,0" />
        <path id="left-margin-Ultralight-S" d="M223,56 l0,110" />
        <path id="right-margin-Ultralight-S" d="M307,56 l0,110" />
        <path id="left-margin-Regular-S" d="M423,56 l0,110" />
        <path id="right-margin-Regular-S" d="M507,56 l0,110" />
        <path id="left-margin-Black-S" d="M623,56 l0,110" />
        <path id="right-margin-Black-S" d="M707,56 l0,110" />
        <path id="Capline-M" d="M18,276 l800,0" />
        <path id="Baseline-M" d="M18,346 l800,0" />
        <path id="Capline-L" d="M18,476 l800,0" />
        <path id="Baseline-L" d="M18,546 l800,0" />
    </g>
    <g id="Symbols">
        <g id="Ultralight-S" transform="translate(0,0)">
            <path d="M239.8,77.4 C242.106,77.4 244,79.294 244,81.6 L244,90.424 C249.527,84.784 257.104,81.604 265,81.604 C277.432,81.604 288.579,89.483 292.724,101.201 C292.909,101.684 293.006,102.197 293.006,102.713 C293.006,105.015 291.111,106.913 288.806,106.913 C286.987,106.913 285.366,105.729 284.807,103.999 C281.846,95.628 273.883,89.996 265,89.996 C258.393,89.996 252.161,93.116 248.196,98.4 L260.8,98.4 C263.106,98.4 265,100.294 265,102.6 C265,104.906 263.106,106.8 260.8,106.8 L239.8,106.8 C237.494,106.8 235.6,104.906 235.6,102.6 L235.6,81.6 C235.6,79.294 237.494,77.4 239.8,77.4 Z M239.834,115.439 C240.283,115.28 240.758,115.2 241.232,115.2 C243.009,115.2 244.601,116.326 245.193,118.001 C248.154,126.372 256.117,132.004 265,132.004 C271.607,132.004 277.839,128.884 281.804,123.6 L269.2,123.6 C266.894,123.6 265,121.706 265,119.4 C265,117.094 266.894,115.2 269.2,115.2 L290.2,115.2 C292.506,115.2 294.4,117.094 294.4,119.4 L294.4,140.4 C294.4,142.706 292.506,144.6 290.2,144.6 C287.894,144.6 286,142.706 286,140.4 L286,131.576 C280.473,137.216 272.896,140.396 265,140.396 C252.568,140.396 241.421,132.517 237.276,120.799 C237.116,120.349 237.036,119.875 237.036,119.4 C237.036,117.623 238.162,116.032 239.838,115.439 L239.834,115.439 Z" />
        </g>
        <g id="Regular-S" transform="translate(0,0)">
            <path d="M439.8,77.4 C442.106,77.4 444,79.294 444,81.6 L444,90.424 C449.527,84.784 457.104,81.604 465,81.604 C477.432,81.604 488.579,89.483 492.724,101.201 C492.909,101.684 493.006,102.197 493.006,102.713 C493.006,105.015 491.111,106.913 488.806,106.913 C486.987,106.913 485.366,105.729 484.807,103.999 C481.846,95.628 473.883,89.996 465,89.996 C458.393,89.996 452.161,93.116 448.196,98.4 L460.8,98.4 C463.106,98.4 465,100.294 465,102.6 C465,104.906 463.106,106.8 460.8,106.8 L439.8,106.8 C437.494,106.8 435.6,104.906 435.6,102.6 L435.6,81.6 C435.6,79.294 437.494,77.4 439.8,77.4 Z M439.834,115.439 C440.283,115.28 440.758,115.2 441.232,115.2 C443.009,115.2 444.601,116.326 445.193,118.001 C448.154,126.372 456.117,132.004 465,132.004 C471.607,132.004 477.839,128.884 481.804,123.6 L469.2,123.6 C466.894,123.6 465,121.706 465,119.4 C465,117.094 466.894,115.2 469.2,115.2 L490.2,115.2 C492.506,115.2 494.4,117.094 494.4,119.4 L494.4,140.4 C494.4,142.706 492.506,144.6 490.2,144.6 C487.894,144.6 486,142.706 486,140.4 L486,131.576 C480.473,137.216 472.896,140.396 465,140.396 C452.568,140.396 441.421,132.517 437.276,120.799 C437.116,120.349 437.036,119.875 437.036,119.4 C437.036,117.623 438.162,116.032 439.838,115.439 L439.834,115.439 Z" />
        </g>
        <g id="Black-S" transform="translate(0,0)">
            <path d="M639.8,77.4 C642.106,77.4 644,79.294 644,81.6 L644,90.424 C649.527,84.784 657.104,81.604 665,81.604 C677.432,81.604 688.579,89.483 692.724,101.201 C692.909,101.684 693.006,102.197 693.006,102.713 C693.006,105.015 691.111,106.913 688.806,106.913 C686.987,106.913 685.366,105.729 684.807,103.999 C681.846,95.628 673.883,89.996 665,89.996 C658.393,89.996 652.161,93.116 648.196,98.4 L660.8,98.4 C663.106,98.4 665,100.294 665,102.6 C665,104.906 663.106,106.8 660.8,106.8 L639.8,106.8 C637.494,106.8 635.6,104.906 635.6,102.6 L635.6,81.6 C635.6,79.294 637.494,77.4 639.8,77.4 Z M639.834,115.439 C640.283,115.28 640.758,115.2 641.232,115.2 C643.009,115.2 644.601,116.326 645.193,118.001 C648.154,126.372 656.117,132.004 665,132.004 C671.607,132.004 677.839,128.884 681.804,123.6 L669.2,123.6 C666.894,123.6 665,121.706 665,119.4 C665,117.094 666.894,115.2 669.2,115.2 L690.2,115.2 C692.506,115.2 694.4,117.094 694.4,119.4 L694.4,140.4 C694.4,142.706 692.506,144.6 690.2,144.6 C687.894,144.6 686,142.706 686,140.4 L686,131.576 C680.473,137.216 672.896,140.396 665,140.396 C652.568,140.396 641.421,132.517 637.276,120.799 C637.116,120.349 637.036,119.875 637.036,119.4 C637.036,117.623 638.162,116.032 639.838,115.439 L639.834,115.439 Z" />
        </g>
    </g>
</svg>