<?xml version="1.0" encoding="UTF-8"?>
<svg height="600" width="800" xmlns="http://www.w3.org/2000/svg" xmlns:xlink="http://www.w3.org/1999/xlink">
    <g id="Notes" font-family="LucidaGrande, 'Lucida Grande', sans-serif" font-size="13">
        <rect fill="white" height="600.0" width="800.0" x="0.0" y="0.0" />
        <g font-size="13">
            <text x="18.0" y="176.0">Small</text>
            <text x="18.0" y="376.0">Medium</text>
            <text x="18.0" y="576.0">Large</text>
        </g>
        <g font-size="9">
            <text x="250.0" y="30.0">Ultralight</text>
            <text x="450.0" y="30.0">Regular</text>
            <text x="650.0" y="30.0">Black</text>
            <text id="template-version" fill="#505050" text-anchor="end" x="785.0" y="575.0">Template v.3.0</text>
            <a href="https://github.com/swhitty/SwiftDraw">
                <text fill="#505050" text-anchor="end" x="785.0" y="590.0">https://github.com/swhitty/SwiftDraw</text>
            </a>
        </g>
    </g>
    <g id="Guides" stroke="rgb(39, 170, 225)" stroke-width="0.5">
        <path id="Capline-S" d="M18,76 l800,0" />
        <path id="H-reference" d="M85,145.755 L87.685,145.755 L113.369,79.287 L114.052,79.287 L114.052,76 L112.148,76 L85,145.755 Z M95.693,121.536 L130.996,121.536 L130.263,119.313 L96.474,119.313 L95.693,121.536 Z M139.15,145.755 L141.787,145.755 L114.638,76 L113.466,76 L113.466,79.287 L139.15,145.755 Z" stroke="none" transform="translate(0,0)" />
        <path id="Baseline-S" d="M18,146 l800,0" />
        <path id="left-margin-Ultralight-S" d="M240.426,56 l0,110" />
        <path id="right-margin-Ultralight-S" d="M289.574,56 l0,110" />
        <path id="left-margin-Regular-S" d="M440.426,56 l0,110" />
        <path id="right-margin-Regular-S" d="M489.574,56 l0,110" />
        <path id="left-margin-Black-S" d="M640.426,56 l0,110" />
        <path id="right-margin-Black-S" d="M689.574,56 l0,110" />
        <path id="Capline-M" d="M18,276 l800,0" />
        <path id="Baseline-M" d="M18,346 l800,0" />
        <path id="Capline-L" d="M18,476 l800,0" />
        <path id="Baseline-L" d="M18,546 l800,0" />
    </g>
    <g id="Symbols">
        <g id="Ultralight-S" transform="translate(0,0)">
            <path d="M244,76.149 L286,76.149 C287.974,76.149 289.574,74.549 289.574,72.574 C289.574,70.6 287.974,69 286,69 L244,69 C242.026,69 240.426,70.6 240.426,72.574 C240.426,74.549 242.026,76.149 244,76.149 Z" />
            <path d="M261.426,79.723 L261.426,149.426 C261.426,151.4 263.026,153 265,153 C266.974,153 268.574,151.4 268.574,149.426 L268.574,79.723 C268.574,77.749 266.974,76.149 265,76.149 C263.026,76.149 261.426,77.749 261.426,79.723 Z" />
            <path d="M246.986,97.142 L267.093,82.621 L262.907,82.621 L283.014,97.142 C284.614,98.298 286.848,97.938 288.004,96.337 C289.16,94.737 288.8,92.503 287.199,91.347 L267.093,76.826 C265.843,75.923 264.157,75.923 262.907,76.826 L242.801,91.347 C241.2,92.503 240.84,94.737 241.996,96.337 C243.152,97.938 245.386,98.298 246.986,97.142 Z" />
        </g>
        <g id="Regular-S" transform="translate(0,0)">
            <path d="M444,76.149 L486,76.149 C487.974,76.149 489.574,74.549 489.574,72.574 C489.574,70.6 487.974,69 486,69 L444,69 C442.026,69 440.426,70.6 440.426,72.574 C440.426,74.549 442.026,76.149 444,76.149 Z" />
            <path d="M461.426,79.723 L461.426,149.426 C461.426,151.4 463.026,153 465,153 C466.974,153 468.574,151.4 468.574,149.426 L468.574,79.723 C468.574,77.749 466.974,76.149 465,76.149 C463.026,76.149 461.426,77.749 461.426,79.723 Z" />
            <path d="M446.986,97.142 L467.093,82.621 L462.907,82.621 L483.014,97.142 C484.614,98.298 486.848,97.938 488.004,96.337 C489.16,94.737 488.8,92.503 487.199,91.347 L467.093,76.826 C465.843,75.923 464.156,75.923 462.907,76.826 L442.801,91.347 C441.2,92.503 440.84,94.737 441.996,96.337 C443.152,97.938 445.386,98.298 446.986,97.142 Z" />
        </g>
        <g id="Black-S" transform="translate(0,0)">
            <path d="M644,76.149 L686,76.149 C687.974,76.149 689.575,74.549 689.575,72.574 C689.575,70.6 687.974,69 686,69 L644,69 C642.026,69 640.426,70.6 640.426,72.574 C640.426,74.549 642.026,76.149 644,76.149 Z" />
            <path d="M661.426,79.723 L661.426,149.426 C661.426,151.4 663.026,153 665,153 C666.974,153 668.574,151.4 668.574,149.426 L668.574,79.723 C668.574,77.749 666.974,76.149 665,76.149 C663.026,76.149 661.426,77.749 661.426,79.723 Z" />
            <path d="M646.986,97.142 L667.093,82.621 L662.907,82.621 L683.014,97.142 C684.614,98.298 686.848,97.938 688.004,96.337 C689.16,94.737 688.8,92.503 687.199,91.347 L667.093,76.826 C665.844,75.923 664.157,75.923 662.907,76.826 L642.801,91.347 C641.2,92.503 640.84,94.737 641.996,96.337 C643.152,97.938 645.386,98.298 646.986,97.142 Z" />
        </g>
    </g>
</svg>